<svg width="155" height="59" viewBox="0 0 155 59" fill="none" xmlns="http://www.w3.org/2000/svg">
<path fill-rule="evenodd" clip-rule="evenodd" d="M88.8215 16.2071C70.5851 6.60154 57.2406 8.75099 45.859 10.2707C55.5297 9.92942 67.8964 9.80121 77.0665 15.0447C80.8403 15.5661 84.7593 15.9535 88.8215 16.2071" fill="#D3D2D2"/>
<path fill-rule="evenodd" clip-rule="evenodd" d="M101.816 19.1296C64.6082 -16.0195 34.6807 16.1129 21.1118 5.69746C27.3705 21.9183 61.4443 -8.95369 98.956 19.453C99.8752 19.3634 100.705 19.272 101.443 19.1787L101.816 19.1296" fill="#231F20"/>
<path fill-rule="evenodd" clip-rule="evenodd" d="M70.7096 15.4614C87.7723 27.6973 131.367 13.7051 153.863 33.1341C135.615 10.8307 98.4205 21.5365 70.7096 15.4614Z" fill="#231F20"/>
<path fill-rule="evenodd" clip-rule="evenodd" d="M100.628 24.096C70.6578 33.5196 19.7754 -8.86225 6.25256 31.061C23.9468 -2.79005 70.8934 40.8033 100.628 24.096Z" fill="#44A5FF"/>
<path fill-rule="evenodd" clip-rule="evenodd" d="M13.6203 31.291C18.1326 25.8769 32.3515 22.0258 46.5649 30.5595C40.4226 19.5831 19.1878 17.9654 13.6203 31.291" fill="#231F20"/>
<path fill-rule="evenodd" clip-rule="evenodd" d="M130.737 26.4236C137.938 26.1276 142.754 28.0338 145.642 30.8611H138.956C137.193 29.0464 134.549 27.2127 130.737 26.4236Z" fill="#D3D2D2"/>
<path fill-rule="evenodd" clip-rule="evenodd" d="M4.53327 8.03923V8.28812C4.53327 8.81511 4.67195 9.14036 4.94695 9.26386C5.09911 9.32891 5.46178 9.36191 6.03572 9.36191H6.80971H7.54364V7.4274H7.02051C6.70808 7.4274 6.43073 7.42174 6.18514 7.41043C5.93984 7.39912 5.61422 7.37461 5.20309 7.33784C4.93601 7.33784 4.6613 7.31238 4.37291 7.26242C4.20765 7.23697 3.99421 7.18606 3.73524 7.11629C3.22286 6.98431 2.82795 6.63456 2.54767 6.06231C2.33423 5.63054 2.22742 5.08374 2.22742 4.42759C2.22742 3.02008 2.65175 2.1339 3.50031 1.77189C4.07142 1.54186 5.06969 1.42685 6.48946 1.42685H7.54364V0.715079H8.87271V1.42968L10.9145 1.4721C11.3735 1.4721 11.7765 1.49755 12.1234 1.55034C12.4705 1.60125 12.7961 1.68516 13.1004 1.80017C13.4044 1.91519 13.645 2.13107 13.8156 2.44784C13.989 2.7646 14.0743 3.17658 14.0743 3.6866L14.0983 4.53978H11.6726C11.6269 4.23999 11.5388 4.01184 11.4107 3.85817C11.2829 3.70356 11.1092 3.62532 10.8902 3.62532H10.4527H8.87271V5.30812L10.3034 5.35808C10.813 5.35808 11.2161 5.36657 11.5095 5.38636C11.8034 5.40616 12.1074 5.4335 12.4199 5.4731C13.0601 5.5372 13.5541 5.86622 13.9037 6.44884C14.1889 6.93718 14.3333 7.54806 14.3333 8.27963C14.3333 9.38453 14.1252 10.1727 13.7087 10.6431C13.4738 10.9127 13.1751 11.1201 12.8148 11.2691C12.4517 11.4143 12.0218 11.4906 11.5204 11.4906C11.3441 11.4906 11.0561 11.4991 10.653 11.5179C10.2528 11.5377 9.96686 11.5491 9.79349 11.5491H8.87271V12.5917H7.54364V11.566L6.70026 11.5491C6.25481 11.5491 5.83831 11.5349 5.44339 11.5038C5.05093 11.4736 4.65847 11.4284 4.26638 11.3671C3.18817 11.204 2.52891 10.7722 2.29398 10.0774C2.17368 9.76068 2.11523 9.35907 2.11523 8.87733V8.03923H4.53327ZM8.87271 7.4274V9.36191H10.5462C11.4588 9.36191 11.9156 9.04514 11.9156 8.41162C11.9156 7.75547 11.4323 7.4274 10.469 7.4274H9.80414H8.87271ZM7.54364 3.62532H5.57396C4.95468 3.62532 4.64508 3.90531 4.64508 4.46342C4.64508 4.99889 4.97627 5.26852 5.63835 5.26852C5.74234 5.26852 5.90477 5.27134 6.12915 5.277C6.35352 5.28266 6.52406 5.28549 6.64444 5.28549H7.54364V3.62532" fill="white"/>
<path fill-rule="evenodd" clip-rule="evenodd" d="M10.7645 34.5981C12.5823 34.5981 14.4165 34.5981 16.2342 34.5981C17.5627 38.0231 18.8915 41.4481 20.222 44.8721C20.2035 44.4253 20.2395 43.9586 20.3119 43.4675C20.3674 43.0913 20.4202 42.7114 20.4825 42.3333C20.6948 41.0446 20.9078 39.7559 21.1198 38.4662C21.3318 37.1775 21.5438 35.8888 21.7565 34.5981H26.0307C25.8119 35.9246 25.5935 37.2538 25.3755 38.5793C25.1574 39.9048 24.938 41.2322 24.7201 42.5577C24.6769 42.8188 24.6338 43.079 24.5911 43.3392C24.5009 43.886 24.6025 44.3206 24.8879 44.6195C25.1887 44.9344 25.6635 45.0805 26.3513 45.0805C26.6131 45.0795 27.0206 45.0937 27.5721 45.1257C28.1236 45.1568 28.5308 45.1729 28.8091 45.1729C30.1194 45.1719 31.0757 45.1361 31.6599 45.0654C32.245 44.9947 32.7185 44.8194 33.0909 44.529C33.4511 44.249 33.6624 43.8464 33.7468 43.3336C33.8057 42.9753 33.8814 42.6162 33.9568 42.257C34.1668 40.9814 34.3778 39.7031 34.5874 38.4285C34.797 37.153 35.0077 35.8746 35.218 34.5981L55.9237 34.5972L55.7046 35.9331C56.1603 35.474 56.7344 35.1251 57.4358 34.8829C57.8544 34.7386 58.5926 34.6217 59.6211 34.5454C60.6807 34.4671 62.0308 34.4284 63.7173 34.4284C64.7157 34.4284 65.732 34.4284 66.7633 34.4284C68.892 34.4284 70.3118 34.5576 70.9906 34.8112C72.3641 35.3231 73.0184 36.4044 72.9628 38.0571C72.9552 38.2824 72.9166 38.5831 72.8798 38.9602C72.8421 39.3411 72.8044 39.7144 72.7431 40.0868C72.6168 40.8532 72.4999 41.6187 72.3811 42.3824C72.2312 43.3487 72.0691 44.1283 71.8984 44.7175C71.7278 45.3105 71.4949 45.8526 71.1867 46.3588C70.7323 47.1064 70.1487 47.6787 69.4313 48.0699C68.7101 48.4621 67.8597 48.6507 66.8604 48.661C66.1373 48.6686 65.4143 48.695 64.7072 48.711C62.6784 48.6997 60.6496 48.6855 58.6378 48.6761C58.3267 48.6752 57.9996 48.6714 57.6734 48.662C57.3312 48.6525 57.054 48.6441 56.841 48.6441C56.2027 48.6412 55.6487 48.5337 55.1898 48.3292C54.718 48.118 54.3451 47.8173 54.0282 47.426C53.7735 47.1121 53.621 46.7916 53.5325 46.4597C53.4184 46.0327 53.3723 45.4453 53.3985 44.6855C53.4248 43.9313 53.5274 43.0093 53.7061 41.9232C53.8054 41.3189 53.9054 40.7137 54.0049 40.1085C54.1056 39.4966 54.2223 38.9423 54.3764 38.4511C54.403 38.3663 54.4306 38.2814 54.4588 38.1985L49.2227 38.2013C48.9376 39.9322 48.6523 41.663 48.3676 43.392C48.0829 45.121 47.7983 46.851 47.5132 48.5809C46.0882 48.5837 44.6628 48.5856 43.2542 48.5884C43.5389 46.8585 43.8242 45.1276 44.1089 43.3977C44.3939 41.6668 44.6793 39.935 44.9643 38.2032L39.5511 38.2051L39.0837 37.0559L38.7364 39.1884C38.4874 40.7184 38.2324 42.2485 37.9803 43.7786C37.9117 43.9963 37.8477 44.2122 37.8073 44.4309C37.6973 45.0267 37.5328 45.5594 37.2824 46.0289C37.0354 46.4908 36.7336 46.9075 36.3766 47.2535C35.7405 47.8682 34.7974 48.3018 33.542 48.5526C33.3073 48.5997 33.0887 48.6478 32.8837 48.6723C32.2188 48.7553 30.5074 48.7892 27.739 48.7836C26.7258 48.7817 25.7456 48.7459 24.7489 48.743C23.2417 48.7393 22.1404 48.48 21.4226 47.9596L21.6848 48.6327C20.0467 48.6365 18.4413 48.6393 16.8194 48.6422C16.5266 47.8361 16.2335 47.0301 15.9243 46.224C13.0247 46.2278 10.1254 46.2325 7.20967 46.2372C6.65043 47.0452 6.09148 47.854 5.54874 48.662C3.91073 48.6648 2.28874 48.6676 0.68335 48.6704C4.02245 43.9643 7.40283 39.2883 10.7645 34.5981V34.5981ZM64.6308 45.0956C65.3181 45.0965 65.83 45.0673 66.1656 45.022C66.7511 44.9438 67.1942 44.6751 67.5137 44.1943C67.8248 43.7267 68.102 42.7104 68.3575 41.1606C68.4867 40.3724 68.5347 39.8049 68.5234 39.4561C68.5027 38.8047 68.2397 38.3936 67.6929 38.2343C67.5213 38.1843 67.3139 38.1447 67.0754 38.107C66.8519 38.0712 66.6096 38.0505 66.3806 38.0486C65.4642 38.0439 64.5648 38.0344 63.6655 38.026C63.1583 38.026 62.6341 38.0269 62.1269 38.0269C61.8978 38.0269 61.5688 38.0307 61.1587 38.0382C60.7637 38.0458 60.5167 38.0514 60.4196 38.0514C60.0755 38.0514 59.7701 38.1089 59.5052 38.2334C59.2553 38.3521 59.0121 38.5341 58.8094 38.7792C58.5011 39.1506 58.1844 40.2848 57.8733 42.174C57.6545 43.5052 57.7507 44.3348 58.1155 44.6836C58.3871 44.9447 59.2299 45.0739 60.6383 45.0767C61.9798 45.0786 63.3053 45.0927 64.6308 45.0956V45.0956ZM9.45481 42.9471C11.1911 42.9452 12.9439 42.9433 14.6964 42.9414C14.4013 42.1476 14.0901 41.3519 13.8114 40.5582C13.5328 39.7644 13.2219 38.9678 12.9436 38.1721C12.3541 38.9687 11.7527 39.77 11.1908 40.561C10.6231 41.3595 10.0282 42.1514 9.45481 42.9471" fill="#44A5FF"/>
<path fill-rule="evenodd" clip-rule="evenodd" d="M113.184 34.5963C112.62 38.025 112.056 41.4547 111.492 44.8835C114.555 44.8797 117.618 44.8759 120.681 44.8712C120.485 46.0609 120.289 47.2497 120.094 48.4385C114.469 48.4489 108.844 48.4649 103.218 48.4734C102.907 47.6768 102.612 46.8802 102.334 46.0836C99.5 46.0883 96.6491 46.0921 93.8322 46.0958C93.2751 46.8953 92.7339 47.6938 92.1928 48.4932C90.5873 48.4951 89.0148 48.4989 87.4263 48.5017L87.7289 48.0737C87.2689 48.2943 86.7475 48.4433 86.1583 48.5187C86.0084 48.5375 85.8076 48.5573 85.5578 48.579C85.2929 48.6016 85.0949 48.612 84.9309 48.612C84.5048 48.612 83.9617 48.6233 83.2877 48.6431C82.6287 48.662 82.2346 48.6761 82.1196 48.6761C81.9725 48.6761 81.3353 48.6591 80.2106 48.6318C79.0689 48.6035 78.1856 48.5922 77.5633 48.5931C77.3022 48.5941 77.0411 48.5884 76.7809 48.5752C76.5216 48.562 76.2652 48.5111 76.0069 48.5008C75.4346 48.4781 74.9218 48.4216 74.4759 48.25C74.045 48.0831 73.6698 47.8512 73.3785 47.5561C73.1372 47.311 72.9628 46.9443 72.8694 46.4691C72.7761 45.9931 72.7893 45.434 72.8855 44.7826C72.9326 44.4602 72.959 44.133 72.9967 43.8078C74.4052 43.8031 75.8146 43.7984 77.224 43.7946C77.1014 44.5356 77.2023 45.0164 77.5454 45.2238C77.6642 45.2954 77.8688 45.3529 78.1073 45.3944C78.3609 45.4387 78.6871 45.4482 79.0962 45.4548C79.4865 45.4623 79.8768 45.4859 80.2841 45.5009C81.3164 45.4991 82.3478 45.4972 83.3801 45.4962C83.7402 45.4953 84.1173 45.4953 84.4934 45.4943C85.3457 45.4934 85.8312 45.1295 85.9509 44.4008C86.0518 43.788 85.817 43.4184 85.2571 43.3458C84.9667 43.3091 84.6735 43.3062 84.3982 43.2874C84.106 43.2714 83.8307 43.2563 83.5545 43.2412C82.7088 43.2016 81.8802 43.163 81.0515 43.1243C80.6301 43.1017 80.2238 43.0781 79.8184 43.0545C79.1208 43.0178 78.4222 42.9678 77.7246 42.9424C77.3974 42.931 77.1033 42.9339 76.828 42.915C76.5697 42.8971 76.235 42.8358 75.7891 42.7595C74.6427 42.5605 74.0092 41.9713 73.8895 40.9654C73.8244 40.4101 73.8357 39.8087 73.9423 39.1582C74.1346 37.9854 74.3882 37.1275 74.6908 36.5986C75.1933 35.7172 75.8806 35.1336 76.746 34.8546C77.6265 34.5717 79.3706 34.4284 81.9744 34.4284C82.4496 34.4284 83.118 34.4473 83.9976 34.4737C84.8771 34.501 85.5305 34.518 85.9396 34.518C86.8079 34.518 87.5517 34.5774 88.1852 34.7028C88.8036 34.8263 89.3193 34.9913 89.7228 35.2128C90.1603 35.4532 90.4657 35.8379 90.6514 36.3366C90.8409 36.8409 90.8749 37.4678 90.7504 38.223C90.6995 38.5369 90.6477 38.8518 90.5958 39.1648C89.2043 39.1657 87.7949 39.1667 86.3865 39.1676C86.3817 38.9979 86.4044 38.8273 86.4053 38.6566C86.4081 38.2013 86.2036 37.8959 85.8321 37.762C85.802 37.7516 85.7209 37.7384 85.5606 37.7149C85.2571 37.6705 84.9657 37.6545 84.6546 37.6489C84.2643 37.6404 83.8901 37.6177 83.5168 37.6008C82.6975 37.6008 81.8783 37.6008 81.06 37.6017C80.681 37.6149 80.319 37.6328 79.957 37.6394C79.6459 37.6441 79.3791 37.6932 79.101 37.7648C78.6268 37.8874 78.3251 38.1975 78.2374 38.7321C78.1488 39.2741 78.3835 39.6277 78.9181 39.7691C79.0274 39.7983 79.1735 39.8115 79.3659 39.836C79.5422 39.8586 79.7043 39.8718 79.8344 39.8718C80.1955 39.8718 80.5556 39.8709 80.9318 39.8709C82.2186 39.918 83.5045 39.9642 84.7904 40.0104C85.522 40.0425 86.2705 40.083 87.019 40.1047C87.3292 40.1132 87.6196 40.1311 87.9052 40.1905C88.1899 40.2499 88.4737 40.3234 88.7669 40.4281C89.4013 40.6534 89.8341 41.1078 90.0679 41.7734C90.3026 42.4389 90.3366 43.3232 90.1565 44.4234C90.1386 44.5328 90.1188 44.6402 90.0961 44.7449C90.856 43.6777 91.6149 42.6114 92.37 41.5461C94.0114 39.2298 95.6706 36.9126 97.3289 34.5963C99.0974 34.5963 100.883 34.5963 102.652 34.5963C103.532 36.9097 104.435 39.2213 105.309 41.5339C105.894 43.0819 106.488 44.6336 107.085 46.1844C107.721 42.3211 108.356 38.4587 108.992 34.5963C110.4 34.5963 111.791 34.5963 113.184 34.5963V34.5963ZM96.0373 42.8452C97.7248 42.8434 99.4444 42.8415 101.148 42.8396C100.851 42.0552 100.571 41.2699 100.291 40.4856C100.01 39.7012 99.714 38.914 99.434 38.1278C98.8627 38.914 98.2688 39.6984 97.7192 40.4875C97.1752 41.269 96.5926 42.0599 96.0373 42.8452" fill="#231F20"/>
<path fill-rule="evenodd" clip-rule="evenodd" d="M122.676 34.6217C127.687 34.6217 132.683 34.6217 137.693 34.6217C137.516 35.6974 137.34 36.774 137.163 37.8506C133.543 37.8525 129.923 37.8534 126.32 37.8553C126.218 38.4775 126.116 39.0988 126.014 39.721L133.654 39.7144L133.161 42.7086L125.521 42.7189C125.383 43.5533 125.246 44.3876 125.109 45.2219C128.746 45.2172 132.415 45.2115 136.067 45.2068C135.891 46.2834 135.714 47.3601 135.536 48.4367C130.491 48.4451 125.445 48.4546 120.4 48.4631C120.779 46.1571 121.159 43.8483 121.538 41.5433C121.917 39.2374 122.297 36.9296 122.676 34.6217" fill="#231F20"/>
<path fill-rule="evenodd" clip-rule="evenodd" d="M140.79 43.7116C140.67 44.447 140.791 44.9174 141.131 45.1286C141.236 45.1946 141.421 45.2549 141.675 45.2973C141.931 45.3407 142.239 45.3511 142.648 45.3586C143.04 45.3662 143.414 45.3888 143.82 45.4029C144.819 45.402 145.819 45.401 146.834 45.3991C147.178 45.3991 147.555 45.3982 147.931 45.3973C148.767 45.3963 149.236 45.0352 149.355 44.3131C149.454 43.706 149.236 43.3393 148.675 43.2676C148.386 43.2308 148.125 43.229 147.849 43.2092C147.557 43.1941 147.298 43.179 147.022 43.1639C146.193 43.1253 145.363 43.0866 144.552 43.0479C144.162 43.0253 143.756 43.0018 143.368 42.9782C142.669 42.9424 141.971 42.8924 141.289 42.8679C140.962 42.8566 140.669 42.8585 140.425 42.8405C140.167 42.8207 139.817 42.7585 139.403 42.6859C138.257 42.4842 137.644 41.9053 137.534 40.9079C137.473 40.3564 137.477 39.7616 137.583 39.1167C137.773 37.9543 138.01 37.104 138.311 36.5789C138.812 35.7059 139.484 35.1317 140.364 34.8508C141.229 34.5755 142.923 34.4285 145.477 34.4285C145.936 34.4285 146.621 34.4473 147.468 34.4737C148.33 34.5011 148.951 34.5171 149.36 34.5171C150.212 34.5171 150.939 34.5793 151.557 34.7009C152.192 34.8254 152.689 34.9903 153.079 35.2062C153.514 35.4476 153.829 35.8228 154.009 36.3196C154.19 36.8174 154.219 37.4415 154.095 38.1891C154.044 38.5011 153.993 38.8132 153.941 39.1233C152.55 39.1243 151.174 39.1252 149.798 39.1261C149.809 38.9574 149.836 38.7886 149.832 38.619C149.824 38.1683 149.611 37.8704 149.241 37.7328C149.226 37.7271 149.147 37.7083 149.003 37.6866C148.7 37.6404 148.408 37.6272 148.096 37.6206C147.722 37.6121 147.365 37.5895 146.992 37.5725C146.172 37.5734 145.37 37.5735 144.584 37.5735C144.205 37.5867 143.843 37.6046 143.497 37.6112C143.202 37.6159 142.92 37.6668 142.658 37.7356C142.184 37.8591 141.899 38.1645 141.812 38.6944C141.724 39.2308 141.944 39.5824 142.478 39.722C142.587 39.7512 142.733 39.7663 142.909 39.7889C143.086 39.8115 143.232 39.8238 143.378 39.8238C143.739 39.8238 144.099 39.8238 144.443 39.8228C145.712 39.87 146.966 39.9162 148.22 39.9614C148.951 39.9935 149.683 40.0321 150.432 40.0547C150.71 40.0623 151.018 40.0793 151.302 40.1396C151.57 40.1971 151.853 40.2753 152.131 40.3753C152.766 40.6034 153.2 41.0484 153.435 41.7093C153.67 42.3682 153.706 43.245 153.527 44.3357C153.329 45.5406 152.874 46.4795 152.211 47.1593C151.555 47.8305 150.673 48.2509 149.552 48.3942C149.418 48.4122 149.218 48.4329 148.968 48.4555C148.72 48.4772 148.505 48.4866 148.358 48.4866C147.948 48.4876 147.405 48.4989 146.747 48.5187C146.089 48.5375 145.711 48.5517 145.595 48.5517C145.465 48.5517 144.845 48.5347 143.719 48.5074C142.611 48.48 141.744 48.4678 141.138 48.4687C140.876 48.4697 140.615 48.4631 140.372 48.4508C140.111 48.4376 139.856 48.3876 139.598 48.3773C139.024 48.3537 138.515 48.2905 138.099 48.1284C137.654 47.9549 137.305 47.7371 136.999 47.4402C136.754 47.2017 136.608 46.8359 136.505 46.3636C136.404 45.8931 136.423 45.3379 136.519 44.6912C136.565 44.3725 136.591 44.0473 136.628 43.7258C138.021 43.7211 139.414 43.7164 140.79 43.7116" fill="#231F20"/>
<path fill-rule="evenodd" clip-rule="evenodd" d="M128.964 53.1768C129.045 52.7554 129.124 52.333 129.204 51.9107C127.541 51.9107 125.867 51.9107 124.216 51.9107C124.016 52.9656 123.817 54.0196 123.618 55.0736C123.419 56.1266 123.219 57.1815 123.02 58.2355C124.715 58.2374 126.42 58.2402 128.124 58.2421C128.205 57.8207 128.284 57.3984 128.364 56.976C127.191 56.9751 126.03 56.9732 124.88 56.9722C124.96 56.548 125.04 56.1228 125.12 55.6977C126.132 55.6986 127.145 55.6995 128.168 55.6995C128.247 55.2781 128.327 54.8558 128.407 54.4334C127.383 54.4334 126.372 54.4325 125.358 54.4325C125.439 54.0139 125.518 53.5953 125.597 53.1758C126.716 53.1758 127.845 53.1758 128.964 53.1768V53.1768ZM25.7318 56.1077C26.2249 55.4092 26.7252 54.7059 27.2218 54.0092C27.7217 53.3078 28.2293 52.6092 28.7333 51.9088C28.2113 51.9088 27.6889 51.9088 27.1772 51.9088C26.8478 52.3594 26.5149 52.8072 26.1999 53.2597C25.8885 53.7075 25.5522 54.16 25.2443 54.6097C25.0728 54.16 24.8958 53.7113 24.7398 53.2597C24.5847 52.811 24.4177 52.3594 24.2673 51.9088C23.7453 51.9088 23.2336 51.9088 22.7326 51.9088C22.9733 52.6158 23.215 53.3219 23.4556 54.029C23.6966 54.7361 23.9376 55.4431 24.1786 56.1502C24.1176 56.4764 24.0563 56.8035 23.9953 57.1287C23.9347 57.4549 23.8735 57.7811 23.8125 58.1073C24.3241 58.1073 24.8356 58.1082 25.3576 58.1092C25.4198 57.7755 25.4821 57.4417 25.5446 57.108C25.6071 56.7752 25.6696 56.4415 25.7318 56.1077V56.1077ZM33.1775 51.8569C32.2287 51.8569 31.3343 52.1916 30.6435 52.7516C29.9528 53.3116 29.443 54.0988 29.2744 55.0019C29.1048 55.9107 29.3182 56.7073 29.7977 57.2758C30.2775 57.8443 31.0453 58.1865 31.9932 58.1874C32.9309 58.1884 33.8262 57.8471 34.5186 57.2777C35.2116 56.7083 35.7337 55.9117 35.903 55.0066C36.0713 54.1063 35.8458 53.3182 35.3648 52.7563C34.8837 52.1935 34.1153 51.8569 33.1775 51.8569V51.8569ZM32.941 53.1777C33.4093 53.1777 33.8029 53.3738 34.0471 53.7038C34.2874 54.029 34.3897 54.4909 34.2921 55.0142C34.1943 55.5383 33.9179 56.005 33.5553 56.334C33.1864 56.6677 32.7196 56.8667 32.2509 56.8667C31.7822 56.8667 31.3864 56.6611 31.1363 56.3312C30.8823 55.9965 30.7736 55.5355 30.8713 55.0113C30.9689 54.49 31.2386 54.0337 31.617 53.7028C31.9893 53.3785 32.472 53.1777 32.941 53.1777V53.1777ZM43.7943 51.9097C43.2611 51.9097 42.7495 51.9097 42.2381 51.9097C42.1254 52.5102 42.0126 53.1117 41.9001 53.7132C41.7877 54.3137 41.6749 54.9152 41.5625 55.5176C41.4049 56.3604 40.7966 56.8751 40.0616 56.8742C39.3159 56.8742 38.8798 56.3585 39.0374 55.5157C39.1498 54.9142 39.2623 54.3128 39.3747 53.7122C39.4868 53.1108 39.5996 52.5102 39.7119 51.9097C39.19 51.9097 38.6675 51.9097 38.1451 51.9097C38.0326 52.5102 37.9203 53.1108 37.8081 53.7113C37.696 54.3118 37.5832 54.9133 37.4708 55.5138C37.3176 56.3349 37.4654 57.0081 37.8715 57.4709C38.2825 57.9385 38.9509 58.1969 39.8033 58.1978C40.6655 58.1987 41.4204 57.9423 41.9949 57.4757C42.5637 57.0137 42.9645 56.3397 43.1184 55.5185C43.2308 54.9161 43.3439 54.3147 43.4563 53.7132C43.5687 53.1117 43.6815 52.5102 43.7943 51.9097V51.9097ZM48.4147 58.1384C49.0006 58.1394 49.5972 58.1403 50.1938 58.1412C50.0344 57.7981 49.8793 57.453 49.7365 57.1118C49.5922 56.7686 49.4286 56.4264 49.2795 56.0832C49.6759 55.9013 50.0097 55.6373 50.2462 55.3045C50.4866 54.9661 50.6843 54.5579 50.7737 54.0818C50.9035 53.3879 50.763 52.8411 50.4032 52.4744C50.0382 52.103 49.4326 51.9097 48.6225 51.9097C47.6953 51.9097 46.7786 51.9097 45.8621 51.9097C45.6675 52.9467 45.4732 53.9847 45.279 55.0226C45.0851 56.0587 44.8902 57.0967 44.696 58.1337C45.2073 58.1346 45.7401 58.1356 46.2622 58.1356C46.3169 57.8443 46.3719 57.552 46.4262 57.2607C46.4808 56.9685 46.5358 56.6753 46.5908 56.383C46.9852 56.384 47.3794 56.384 47.7843 56.3849C47.795 56.3849 47.8058 56.3849 47.827 56.3849C47.9211 56.6772 48.0155 56.9704 48.1099 57.2626C48.2044 57.5539 48.3096 57.8471 48.4147 58.1384ZM46.8238 55.1386C46.8857 54.8077 46.9482 54.4768 47.0099 54.1468C47.0717 53.8159 47.1337 53.486 47.1955 53.1541C47.5897 53.1551 47.9845 53.1551 48.3891 53.1551C49.0605 53.1551 49.4039 53.485 49.2824 54.1346C49.1592 54.7926 48.6885 55.1405 48.0174 55.1396C47.6125 55.1396 47.2182 55.1395 46.8238 55.1386ZM57.6422 51.8371C56.8862 51.8371 56.2319 52.0191 55.7454 52.3481C55.2672 52.6714 54.9355 53.1447 54.8279 53.7188C54.6209 54.8228 55.3585 55.2112 56.132 55.462C56.8956 55.709 57.6941 55.824 57.5913 56.3755C57.5244 56.7318 57.1907 56.9185 56.6901 56.9185C56.0405 56.9176 55.1509 56.5433 54.6276 55.9814C54.349 56.3877 54.0698 56.795 53.7913 57.2004C54.4129 57.8075 55.3942 58.2006 56.428 58.2025C57.1096 58.2035 57.7582 58.0385 58.2663 57.7189C58.7735 57.3993 59.1403 56.9223 59.2581 56.2972C59.4693 55.1697 58.7254 54.7606 57.9543 54.4957C57.1935 54.2336 56.4063 54.1157 56.5072 53.5765C56.5637 53.2739 56.8588 53.1221 57.2632 53.1221C57.7742 53.1221 58.5454 53.3898 59.1233 53.7735C59.3929 53.3606 59.6729 52.9467 59.9425 52.5338C59.392 52.1152 58.5275 51.8371 57.6422 51.8371ZM62.5577 56.8271C62.7123 56.0078 62.866 55.1886 63.0196 54.3693C63.1733 53.5501 63.327 52.7299 63.4806 51.9097C62.948 51.9097 62.4257 51.9097 61.9138 51.9097C61.7187 52.9505 61.5235 53.9922 61.3283 55.033C61.1332 56.0729 60.9371 57.1146 60.742 58.1544C62.1382 58.1563 63.5344 58.1582 64.9513 58.1601C65.0343 57.717 65.1172 57.273 65.2011 56.8299C64.3168 56.8289 63.4429 56.828 62.5577 56.8271V56.8271ZM70.7925 51.8569C69.8225 51.8569 68.9193 52.1973 68.2245 52.7591C67.524 53.3257 67.0103 54.1157 66.8396 55.0264C66.668 55.9418 66.883 56.7422 67.3685 57.3173C67.8502 57.8876 68.6252 58.2355 69.5934 58.2365C70.5531 58.2374 71.46 57.8933 72.1642 57.3201C72.8685 56.746 73.3926 55.9437 73.5642 55.0311C73.7348 54.1233 73.5105 53.3304 73.0202 52.7638C72.53 52.1963 71.7513 51.8569 70.7925 51.8569V51.8569ZM70.5531 53.1881C71.032 53.1881 71.4317 53.3889 71.6787 53.7188C71.9257 54.0488 72.0417 54.5126 71.9427 55.0387C71.8437 55.5666 71.5533 56.0342 71.1819 56.3689C70.8095 56.7026 70.3334 56.9062 69.8545 56.9053C69.3756 56.9053 68.9768 56.7007 68.7194 56.3661C68.463 56.0314 68.348 55.5647 68.447 55.0368C68.546 54.5098 68.825 54.0479 69.2068 53.7179C69.5877 53.3879 70.0732 53.1881 70.5531 53.1881V53.1881ZM79.5195 54.9906C79.4676 55.2612 79.4167 55.5308 79.3668 55.8004C79.3159 56.071 79.265 56.3406 79.214 56.6102C78.8058 56.7988 78.3797 56.9138 78.0488 56.9138C77.5379 56.9138 77.1061 56.7111 76.8497 56.3774C76.5932 56.0418 76.4782 55.5742 76.5781 55.0415C76.6762 54.5192 76.9665 54.0554 77.3484 53.7245C77.7302 53.3926 78.227 53.1909 78.738 53.1909C79.314 53.1909 79.9051 53.4502 80.2727 53.8716C80.6395 53.5105 81.0062 53.1494 81.372 52.7884C80.8403 52.2142 79.9277 51.8569 79 51.8569C78.0083 51.8569 77.0806 52.2001 76.366 52.7686C75.6524 53.337 75.1291 54.1327 74.9585 55.0406C74.7869 55.9531 74.9887 56.7554 75.477 57.3277C75.9663 57.9008 76.7441 58.2459 77.6915 58.2468C78.5654 58.2478 79.6732 57.9103 80.434 57.437C80.5103 57.0298 80.5876 56.6215 80.664 56.2143C80.7403 55.807 80.8167 55.3997 80.894 54.9915C80.4358 54.9906 79.9777 54.9906 79.5195 54.9906V54.9906ZM86.7447 57.0307C86.8107 57.4172 86.888 57.8028 86.9643 58.1884C87.529 58.1893 88.1041 58.1903 88.6688 58.1912C88.4293 57.1438 88.1842 56.0974 87.9382 55.05C87.6931 54.0054 87.4583 52.9571 87.2179 51.9097C86.6749 51.9097 86.1206 51.9097 85.5766 51.9097C84.9223 52.9562 84.2775 54.0026 83.6336 55.0472C82.9897 56.0917 82.3449 57.1372 81.701 58.1818C82.244 58.1827 82.787 58.1827 83.331 58.1837C83.5525 57.799 83.7741 57.4134 84.0069 57.0279C84.912 57.0288 85.8283 57.0297 86.7447 57.0307V57.0307ZM86.5043 55.8202C85.8962 55.8202 85.2891 55.8193 84.6923 55.8193C84.9148 55.4318 85.1363 55.0443 85.3588 54.6578C85.5804 54.2713 85.8132 53.8838 86.0461 53.4964C86.1111 53.8838 86.2092 54.2713 86.2752 54.6588C86.3412 55.0453 86.4279 55.4327 86.5043 55.8202V55.8202ZM96.0316 58.2006C96.2287 57.1523 96.4266 56.104 96.6237 55.0556C96.8216 54.0073 97.0187 52.959 97.2166 51.9107C96.7047 51.9107 96.2145 51.9107 95.7243 51.9107C95.6017 52.5574 95.4801 53.205 95.3585 53.8508C95.2369 54.4975 95.1153 55.1452 94.9927 55.791C94.625 55.1443 94.2706 54.4947 93.9095 53.8508C93.5447 53.2022 93.1826 52.5564 92.8253 51.9097C92.3455 51.9097 91.877 51.9097 91.4075 51.9097C91.2104 52.9571 91.0125 54.0054 90.8164 55.0519C90.6193 56.0983 90.4214 57.1457 90.2243 58.1931C90.7259 58.194 91.2265 58.194 91.7374 58.195C91.859 57.5501 91.9806 56.9053 92.1023 56.2605C92.2229 55.6166 92.3446 54.9708 92.4662 54.325C92.814 54.9708 93.1864 55.6147 93.5399 56.2624C93.8916 56.9044 94.2564 57.553 94.625 58.1987C95.0832 58.1997 95.5527 58.1997 96.0316 58.2006V58.2006ZM106.164 58.2138C106.362 57.1636 106.56 56.1125 106.759 55.0622C106.957 54.012 107.155 52.9609 107.353 51.9107C106.809 51.9107 106.287 51.9107 105.754 51.9107C105.672 52.3424 105.591 52.7761 105.51 53.2069C105.429 53.6387 105.347 54.0705 105.266 54.5023C104.392 54.5023 103.518 54.5013 102.644 54.5013C102.725 54.0695 102.807 53.6378 102.888 53.206C102.969 52.7752 103.05 52.3424 103.132 51.9107C102.6 51.9107 102.056 51.9107 101.533 51.9107C101.335 52.9599 101.133 54.0083 100.929 55.0585C100.726 56.1059 100.534 57.157 100.336 58.2063C100.858 58.2063 101.401 58.2072 101.945 58.2082C102.022 57.8 102.099 57.3927 102.175 56.9845C102.253 56.5772 102.329 56.169 102.406 55.7608C103.28 55.7618 104.154 55.7627 105.028 55.7636C104.951 56.1719 104.874 56.5801 104.797 56.9873C104.72 57.3955 104.643 57.8037 104.566 58.2119C105.099 58.2119 105.621 58.2129 106.164 58.2138V58.2138ZM114.32 53.173C114.399 52.7525 114.479 52.3311 114.558 51.9107C112.895 51.9107 111.244 51.9107 109.591 51.9107C109.393 52.9618 109.195 54.0139 108.996 55.0632C108.798 56.1143 108.6 57.1655 108.402 58.2167C110.085 58.2185 111.769 58.2204 113.463 58.2233C113.543 57.8028 113.622 57.3814 113.701 56.9609C112.55 56.96 111.399 56.9581 110.249 56.9572C110.328 56.5339 110.408 56.1096 110.489 55.6863C111.501 55.6873 112.502 55.6873 113.515 55.6882C113.594 55.2687 113.674 54.8473 113.753 54.4259C112.741 54.4259 111.74 54.425 110.726 54.425C110.805 54.0073 110.885 53.5897 110.963 53.172C112.082 53.172 113.201 53.172 114.32 53.173V53.173ZM119.302 58.2308C119.909 58.2317 120.516 58.2317 121.135 58.2327C120.977 57.8858 120.813 57.5341 120.661 57.1891C120.507 56.8403 120.344 56.4933 120.197 56.1455C120.594 55.9607 120.939 55.692 121.199 55.3545C121.462 55.0113 121.651 54.5975 121.742 54.1139C121.875 53.4106 121.72 52.8609 121.346 52.4838C120.977 52.1124 120.335 51.9107 119.504 51.9107C118.556 51.9107 117.618 51.9107 116.68 51.9107C116.481 52.9637 116.282 54.0167 116.084 55.0679C115.885 56.12 115.686 57.173 115.488 58.2251C116.009 58.2261 116.543 58.227 117.086 58.228C117.142 57.9319 117.198 57.635 117.254 57.339C117.309 57.0429 117.366 56.746 117.421 56.45C117.816 56.45 118.231 56.45 118.647 56.4509C118.657 56.4509 118.668 56.4509 118.689 56.4509C118.783 56.7479 118.891 57.0429 118.99 57.3409C119.088 57.6359 119.187 57.9338 119.302 58.2308V58.2308ZM117.66 55.1867C117.723 54.8511 117.786 54.5155 117.849 54.1798C117.913 53.8452 117.977 53.5096 118.04 53.1739C118.434 53.1739 118.851 53.1739 119.265 53.1739C119.969 53.1739 120.311 53.5086 120.187 54.1676C120.06 54.835 119.589 55.1876 118.886 55.1867C118.47 55.1867 118.054 55.1867 117.66 55.1867Z" fill="#231F20"/>
<path fill-rule="evenodd" clip-rule="evenodd" d="M130.709 53.7867H151.553L151.271 55.4582H130.428L130.709 53.7867Z" fill="#231F20"/>
<path fill-rule="evenodd" clip-rule="evenodd" d="M0.665429 53.7867H20.6336L20.3516 55.4582H0.383362L0.665429 53.7867" fill="#231F20"/>
</svg>
